<?xml version="1.0" standalone="no"?>
<!DOCTYPE svg PUBLIC "-//W3C//DTD SVG 20010904//EN"
 "http://www.w3.org/TR/2001/REC-SVG-20010904/DTD/svg10.dtd">
<svg version="1.0" xmlns="http://www.w3.org/2000/svg"
 width="512.000000pt" height="512.000000pt" viewBox="0 0 512.000000 512.000000"
 preserveAspectRatio="xMidYMid meet">
<metadata>
Created by potrace 1.14, written by Peter Selinger 2001-2017
</metadata>
<g transform="translate(0.000000,512.000000) scale(0.100000,-0.100000)"
fill="#000000" stroke="none">
<path d="M1280 4865 l0 -255 -107 0 c-60 0 -348 0 -641 0 l-532 1 2 -258 3
-258 1020 0 1020 0 -1 -40 c-3 -117 -49 -268 -130 -430 -61 -120 -105 -177
-253 -325 l-124 -125 -139 140 c-76 77 -158 170 -182 206 l-43 64 -273 0
c-201 0 -274 -3 -277 -12 -7 -19 111 -251 178 -351 40 -61 116 -148 216 -250
l153 -157 -419 -420 -420 -420 179 -180 c160 -161 180 -178 195 -165 9 8 198
195 420 417 221 222 407 403 411 403 5 0 169 -162 365 -360 215 -217 359 -355
362 -348 32 78 111 269 120 288 6 14 11 27 11 30 1 5 15 39 59 139 l19 44
-288 288 -288 288 136 133 c74 73 153 156 175 183 196 248 345 641 352 925 l1
36 246 -1 c135 0 249 2 254 5 12 8 12 16 11 273 l-1 237 -82 -1 c-46 0 -334 0
-641 0 l-558 1 1 243 c1 133 1 248 1 255 -1 9 -59 12 -256 12 l-255 0 0 -255z"/>
<path d="M3325 3055 c-7 -11 -30 -60 -50 -110 -21 -49 -43 -103 -50 -120 -7
-16 -52 -124 -100 -240 -47 -115 -92 -223 -100 -240 -7 -16 -30 -70 -50 -120
-21 -49 -43 -103 -50 -120 -7 -16 -97 -232 -200 -480 -103 -247 -193 -463
-200 -480 -7 -16 -30 -70 -50 -120 -21 -49 -43 -103 -50 -120 -7 -16 -25 -59
-39 -95 -28 -67 -33 -80 -59 -140 -14 -32 -263 -628 -274 -658 -4 -10 47 -12
252 -10 l257 3 158 380 159 380 704 3 704 2 159 -381 c87 -210 163 -383 169
-385 6 -3 121 -3 256 -2 l246 3 -253 610 c-139 336 -267 642 -283 680 -17 39
-71 169 -122 290 -50 121 -146 353 -214 515 -68 162 -185 444 -260 625 -75
182 -140 333 -143 337 -4 4 -119 8 -256 10 -240 3 -249 2 -261 -17z m410 -960
c75 -181 143 -343 150 -360 7 -16 37 -86 65 -155 76 -181 80 -191 101 -238 10
-23 19 -47 19 -52 0 -6 -179 -10 -489 -10 l-489 0 70 168 c121 290 178 426
188 447 12 27 210 504 222 535 8 20 11 22 18 10 4 -8 70 -163 145 -345z"/>
</g>
</svg>
